<svg width="357" height="75" viewBox="0 0 357 75" fill="none" xmlns="http://www.w3.org/2000/svg">
<path fill-rule="evenodd" clip-rule="evenodd" d="M37.5 75C58.2107 75 75 58.2107 75 37.5C75 33.8133 74.468 30.2508 73.4765 26.8852C73.2981 26.2793 72.498 26.1838 72.1628 26.7191L54.6319 54.7199C52.5751 58.005 48.9723 60 45.0965 60H40.6793C39.8509 60 39.1793 59.3284 39.1793 58.5V28.7421C39.1793 27.277 37.2947 26.6809 36.4522 27.8794L14.2089 59.3626C13.928 59.7622 13.4702 60 12.9818 60H10.3707C9.15918 60 8.44749 58.638 9.13936 57.6434L38.7318 15.6434C39.0122 15.2403 39.4721 15 39.9631 15H52.9565C53.7849 15 54.4565 15.6716 54.4565 16.5V39.2446C54.4565 40.7436 56.4128 41.3155 57.2203 40.0527L69.1861 21.3387C69.9254 20.1825 69.9869 18.7063 69.2556 17.545C62.6178 7.00411 50.8769 0 37.5 0C16.7893 0 0 16.7893 0 37.5C0 58.2107 16.7893 75 37.5 75Z" fill="white"/>
<path d="M127.812 51.8499L141.202 28.875C141.574 28.3125 142.133 27.375 142.319 26.25L143.25 19.875C143.25 19.5 142.878 19.3125 142.505 19.875L139.837 24.0322L129.951 39.6272C129.283 40.6796 127.667 40.203 127.667 38.9538V20C127.667 19.3096 127.112 18.75 126.428 18.75H115.382C114.976 18.75 114.596 18.9503 114.365 19.2862L90.2241 54.2862C89.6525 55.115 90.2405 56.25 91.2415 56.25H93.3989C93.8024 56.25 94.1807 56.0518 94.4128 55.7189L112.481 29.7953C113.177 28.7966 114.735 29.2934 114.735 30.5142V55C114.735 55.6904 115.289 56.25 115.974 56.25H119.933C123.136 56.25 126.113 54.5875 127.812 51.8499Z" fill="white"/>
<path d="M226.82 51.8499L240.203 28.875C240.575 28.3125 241.133 27.375 241.32 26.25L242.25 19.875C242.25 19.5 241.878 19.3125 241.506 19.875L238.839 24.0322L228.958 39.6272C228.291 40.6796 226.676 40.203 226.676 38.9538V20C226.676 19.3096 226.121 18.75 225.437 18.75H215.077C213.953 18.75 213.75 20 213.75 20L213.75 26.4375C213.75 26.4375 213.75 29.2934 213.75 30.5142V55C213.75 55.6904 214.305 56.25 214.989 56.25H218.946C222.147 56.25 225.122 54.5875 226.82 51.8499Z" fill="white"/>
<path d="M203.471 55.0647C203.326 55.7561 202.728 56.25 202.037 56.25H193.468C192.536 56.25 191.84 55.3739 192.032 54.4417L196.599 32.207C196.741 31.5125 197.34 31.0153 198.034 31.0153H206.704C207.638 31.0153 208.334 31.8961 208.138 32.83L203.471 55.0647ZM210 23.3275C210 24.2273 209.81 25.0098 209.43 25.6749C209.089 26.34 208.614 26.9073 208.007 27.3768C207.437 27.8462 206.773 28.1984 206.013 28.4331C205.254 28.6678 204.475 28.7852 203.678 28.7852C202.159 28.7852 200.887 28.4135 199.862 27.6702C198.837 26.9268 198.324 25.7531 198.324 24.1491C198.324 23.2883 198.495 22.5254 198.837 21.8603C199.179 21.1561 199.634 20.5888 200.204 20.1585C200.811 19.689 201.495 19.3369 202.254 19.1021C203.051 18.8674 203.868 18.75 204.703 18.75C206.184 18.75 207.437 19.1217 208.462 19.865C209.487 20.6084 210 21.7625 210 23.3275Z" fill="white"/>
<path d="M142.433 33.5188C142.529 33.0689 142.825 32.6855 143.243 32.4936C145.015 31.6803 146.819 31.083 148.653 30.7016C150.754 30.2339 153.088 30 155.655 30C158.144 30 160.206 30.1949 161.84 30.5846C163.474 30.9744 164.777 31.5395 165.749 32.2801C166.722 33.0206 167.403 33.8975 167.792 34.9109C168.18 35.9243 168.375 37.0741 168.375 38.3602C168.375 39.1008 168.317 39.8998 168.2 40.7572C168.122 41.6147 168.025 42.3357 167.908 42.9204L165.419 54.5951C165.271 55.2874 164.66 55.7823 163.952 55.7823H156.909C156.236 55.7823 155.646 55.335 155.464 54.6877L154.781 52.2537C154.746 52.1277 154.631 52.0406 154.5 52.0406C154.418 52.0406 154.34 52.0753 154.284 52.1354C153.058 53.4536 151.629 54.4744 149.995 55.1977C148.361 55.8992 146.727 56.25 145.094 56.25C144.16 56.25 143.246 56.1136 142.351 55.8408C141.457 55.5679 140.659 55.1587 139.959 54.613C139.259 54.0284 138.695 53.3073 138.267 52.4499C137.839 51.5534 137.625 50.4816 137.625 49.2344C137.625 47.2077 138.17 45.6097 139.259 44.4404C140.387 43.2322 141.846 42.3357 143.635 41.7511C145.463 41.1275 147.505 40.7378 149.762 40.5818C151.647 40.4538 153.532 40.3783 155.417 40.3555C156.132 40.3468 156.746 39.8428 156.867 39.1377C156.89 39.0026 156.914 38.8603 156.939 38.711C157.055 37.9705 157.114 37.3274 157.114 36.7817C157.114 36.0802 156.919 35.4371 156.53 34.8524C156.18 34.2288 155.421 33.917 154.255 33.917C152.893 33.917 151.882 34.3263 151.22 35.1448C150.836 35.6257 150.534 36.1733 150.313 36.7877C150.065 37.4749 149.461 38.0095 148.731 38.0095H143.329C142.375 38.0095 141.663 37.1302 141.862 36.1969L142.433 33.5188ZM155.792 44.1242C155.902 43.5936 155.497 43.0958 154.955 43.0958C153.827 43.0958 152.854 43.2517 152.037 43.5635C151.259 43.8363 150.617 44.2066 150.112 44.6743C149.645 45.142 149.295 45.6681 149.061 46.2528C148.828 46.8374 148.711 47.422 148.711 48.0067C148.711 48.9421 148.945 49.6437 149.412 50.1114C149.917 50.5791 150.501 50.8129 151.162 50.8129C151.979 50.8129 152.776 50.5206 153.554 49.936C154.371 49.3513 154.877 48.5718 155.071 47.5974L155.792 44.1242Z" fill="white"/>
<path d="M316.012 38.0095C315.707 38.0095 315.479 37.7274 315.538 37.4248C315.576 37.23 315.595 37.0156 315.595 36.7817C315.595 36.0802 315.461 35.4371 315.193 34.8524C314.963 34.2288 314.484 33.917 313.756 33.917C313.105 33.917 312.454 34.2094 311.802 34.794C311.151 35.3396 310.825 36.0802 310.825 37.0156C310.825 37.6392 310.979 38.1459 311.285 38.5356C311.63 38.8864 312.071 39.1787 312.607 39.4126C313.143 39.6464 313.737 39.8413 314.389 39.9972C315.078 40.1531 315.749 40.309 316.4 40.4649C317.32 40.6988 318.182 40.9911 318.986 41.3419C319.829 41.6537 320.576 42.0824 321.228 42.6281C321.879 43.1737 322.396 43.8558 322.779 44.6743C323.162 45.4538 323.354 46.4282 323.354 47.5974C323.354 49.2344 322.971 50.618 322.205 51.7483C321.477 52.8396 320.442 53.7361 319.101 54.4376C317.799 55.1002 316.247 55.5679 314.446 55.8408C312.684 56.1136 310.787 56.25 308.756 56.25C305.653 56.25 303.086 56.0161 301.055 55.5484C299.712 55.239 298.637 54.9381 297.83 54.6457C297.207 54.42 296.896 53.752 297.031 53.0965L297.763 49.5506C297.907 48.8555 298.512 48.3575 299.214 48.3575H305.187C305.488 48.3575 305.711 48.6376 305.711 48.9421C305.711 49.098 305.711 49.2734 305.711 49.4683C305.711 50.3647 305.902 51.0857 306.285 51.6314C306.707 52.1381 307.416 52.3914 308.412 52.3914C309.523 52.3914 310.308 52.0796 310.768 51.456C311.266 50.7934 311.515 50.1893 311.515 49.6437C311.515 49.098 311.304 48.6303 310.883 48.2405C310.5 47.8118 310.002 47.461 309.389 47.1882C308.776 46.8764 308.086 46.623 307.32 46.4282C306.592 46.1943 305.883 45.98 305.193 45.7851C304.695 45.6681 304.121 45.4733 303.469 45.2004C302.856 44.9276 302.262 44.5379 301.688 44.0312C301.113 43.5245 300.634 42.8814 300.251 42.1019C299.868 41.2834 299.676 40.27 299.676 39.0618C299.676 37.3469 300.078 35.9243 300.883 34.794C301.726 33.6247 302.799 32.6893 304.101 31.9878C305.442 31.2862 306.937 30.7795 308.584 30.4677C310.27 30.1559 311.956 30 313.641 30C315.749 30 317.741 30.1949 319.618 30.5846C320.988 30.8689 322.173 31.2153 323.176 31.6239C323.801 31.8788 324.112 32.5689 323.963 33.2344L323.156 36.841C323.003 37.5243 322.403 38.0095 321.711 38.0095H316.012Z" fill="white"/>
<path d="M250.572 44.0312C249.846 44.0312 249.22 44.5509 249.118 45.27C249.059 45.6856 249.01 46.0911 248.971 46.4866C248.933 47.2661 248.913 47.9677 248.913 48.5913C248.913 48.9421 248.933 49.3318 248.971 49.7606C249.01 50.1893 249.087 50.5985 249.202 50.9883C249.339 51.3014 249.507 51.5834 249.706 51.8344C249.753 51.8947 249.807 51.9504 249.869 51.9953C250.128 52.1814 250.463 52.2745 250.875 52.2745C251.221 52.2745 251.606 52.1576 252.029 51.9237C252.49 51.6899 252.933 51.3586 253.356 50.9298C253.817 50.5011 254.24 49.9749 254.625 49.3513C254.849 49.0214 255.046 48.6696 255.216 48.2959C255.491 47.6912 256.062 47.2467 256.726 47.2467H263.165C264.135 47.2467 264.85 48.1533 264.624 49.0964L263.706 52.9255C263.617 53.296 263.393 53.6229 263.063 53.8138C262.418 54.1871 261.702 54.512 260.913 54.7884C259.913 55.1392 258.856 55.4315 257.74 55.6654C256.625 55.8602 255.49 55.9967 254.337 56.0746C253.183 56.1915 252.087 56.25 251.048 56.25C249.125 56.25 247.337 56.0746 245.683 55.7238C244.029 55.373 242.587 54.7689 241.356 53.9115C240.125 53.054 239.144 51.9237 238.413 50.5206C237.721 49.0785 237.375 47.3051 237.375 45.2004C237.375 43.2906 237.663 41.4198 238.24 39.588C238.856 37.7561 239.856 36.1386 241.24 34.7355C242.663 33.2934 244.548 32.1437 246.894 31.2862C249.279 30.4287 252.24 30 255.779 30C259.625 30 262.51 30.6041 264.433 31.8124C266.394 33.0206 267.375 34.9109 267.375 37.4833C267.375 38.5356 267.221 39.6854 266.913 40.9326C266.68 41.8511 266.357 42.6682 265.945 43.384C265.704 43.8029 265.242 44.0312 264.759 44.0312H250.572ZM256.99 37.0741C256.99 35.8658 256.798 35.0473 256.413 34.6186C256.029 34.1899 255.567 33.9755 255.029 33.9755C254.413 33.9755 253.837 34.1899 253.298 34.6186C252.798 35.0083 252.337 35.554 251.913 36.2556C251.49 36.9182 251.106 37.6977 250.76 38.5941C250.638 38.8952 250.524 39.2036 250.416 39.5191C250.104 40.4357 250.823 41.3419 251.791 41.3419H255.198C255.932 41.3419 256.559 40.8102 256.671 40.0842C256.681 40.0166 256.692 39.9486 256.702 39.8803C256.779 39.4516 256.837 38.9839 256.875 38.4772C256.952 37.9705 256.99 37.5028 256.99 37.0741Z" fill="white"/>
<path d="M340.197 44.0312C339.471 44.0312 338.845 44.5509 338.743 45.27C338.684 45.6856 338.635 46.0911 338.596 46.4866C338.558 47.2661 338.538 47.9677 338.538 48.5913C338.538 48.9421 338.558 49.3318 338.596 49.7606C338.635 50.1893 338.712 50.5985 338.827 50.9883C338.964 51.3014 339.132 51.5834 339.331 51.8344C339.378 51.8947 339.432 51.9504 339.494 51.9953C339.753 52.1814 340.088 52.2745 340.5 52.2745C340.846 52.2745 341.231 52.1576 341.654 51.9237C342.115 51.6899 342.558 51.3586 342.981 50.9298C343.442 50.5011 343.865 49.9749 344.25 49.3513C344.474 49.0214 344.671 48.6696 344.841 48.2959C345.116 47.6912 345.687 47.2467 346.351 47.2467H352.79C353.76 47.2467 354.475 48.1533 354.249 49.0964L353.331 52.9255C353.242 53.296 353.018 53.6229 352.688 53.8138C352.043 54.1871 351.327 54.512 350.538 54.7884C349.538 55.1392 348.481 55.4315 347.365 55.6654C346.25 55.8602 345.115 55.9967 343.962 56.0746C342.808 56.1915 341.711 56.25 340.673 56.25C338.75 56.25 336.962 56.0746 335.308 55.7238C333.654 55.373 332.212 54.7689 330.981 53.9115C329.75 53.054 328.769 51.9237 328.038 50.5206C327.346 49.0785 327 47.3051 327 45.2004C327 43.2906 327.288 41.4198 327.865 39.588C328.481 37.7561 329.481 36.1386 330.865 34.7355C332.288 33.2934 334.173 32.1437 336.519 31.2862C338.904 30.4287 341.865 30 345.404 30C349.25 30 352.135 30.6041 354.058 31.8124C356.019 33.0206 357 34.9109 357 37.4833C357 38.5356 356.846 39.6854 356.538 40.9326C356.305 41.8511 355.982 42.6682 355.57 43.384C355.329 43.8029 354.867 44.0312 354.384 44.0312H340.197ZM346.615 37.0741C346.615 35.8658 346.423 35.0473 346.038 34.6186C345.654 34.1899 345.192 33.9755 344.654 33.9755C344.038 33.9755 343.462 34.1899 342.923 34.6186C342.423 35.0083 341.962 35.554 341.538 36.2556C341.115 36.9182 340.731 37.6977 340.385 38.5941C340.263 38.8952 340.149 39.2036 340.041 39.5191C339.729 40.4357 340.448 41.3419 341.416 41.3419H344.823C345.557 41.3419 346.184 40.8102 346.296 40.0842C346.306 40.0166 346.317 39.9486 346.327 39.8803C346.404 39.4516 346.462 38.9839 346.5 38.4772C346.577 37.9705 346.615 37.5028 346.615 37.0741Z" fill="white"/>
<path d="M170.62 28.4886C170.74 27.9086 171.189 27.4563 171.763 27.3179C172.978 27.0247 174.07 26.7037 175.037 26.3549C176.249 25.9178 177.353 25.3715 178.348 24.7159C179.387 24.0603 180.361 23.2517 181.269 22.2902C182.088 21.4639 182.954 20.4761 183.868 19.327C184.156 18.965 184.591 18.75 185.052 18.75H188.784C189.736 18.75 190.445 19.6314 190.245 20.5655L189.14 25.7195C188.94 26.6536 189.649 27.535 190.601 27.535H192.005C192.944 27.535 193.65 28.3937 193.472 29.3191L193.205 30.7115C193.069 31.4174 192.454 31.9274 191.738 31.9274H189.057C188.349 31.9274 187.739 32.4254 187.594 33.1205L185.181 44.7115C184.964 45.7168 184.791 46.6128 184.661 47.3995C184.532 48.1862 184.467 48.7981 184.467 49.2351C184.467 50.1093 184.77 50.6556 185.376 50.8741C185.76 51.0034 186.333 51.0944 187.096 51.1472C188.046 51.213 188.756 52.0843 188.555 53.0188L188.161 54.8486C188.045 55.3886 187.64 55.8183 187.092 55.8758C186.926 55.8933 186.743 55.9088 186.544 55.9222C185.938 55.9659 185.246 56.0096 184.467 56.0533C183.731 56.1407 182.952 56.1844 182.129 56.1844C181.35 56.2281 181.031 56.25 180.426 56.25C179.343 56.25 178.283 56.1626 177.244 55.9878C176.206 55.8566 175.275 55.5726 174.453 55.1355C173.63 54.6547 172.96 53.9773 172.44 53.1031C171.964 52.229 171.726 51.049 171.726 49.5629C171.726 49.0385 171.748 48.3829 171.791 47.5962C171.878 46.8094 172.029 45.9353 172.245 44.9738L174.594 33.7355C174.789 32.8034 174.081 31.9274 173.132 31.9274H171.745C170.797 31.9274 170.089 31.0536 170.282 30.1224L170.62 28.4886Z" fill="white"/>
<path d="M272.509 31.8454C272.654 31.1514 273.262 30.6548 273.965 30.6548H281.871C282.581 30.6548 283.192 31.16 283.33 31.8617L283.926 34.8752C283.954 35.017 284.078 35.119 284.221 35.119C284.324 35.119 284.419 35.066 284.476 34.9793C285.364 33.6114 286.492 32.4476 287.857 31.4881C289.269 30.496 291.132 30 293.446 30C293.603 30 293.839 30.0198 294.152 30.0595C294.505 30.0595 294.878 30.119 295.27 30.2381C295.702 30.3175 296.133 30.4563 296.564 30.6548C296.743 30.715 296.919 30.7867 297.092 30.8698C297.621 31.1242 297.839 31.7413 297.717 32.3196L295.58 42.4431C295.433 43.1357 294.827 43.6309 294.124 43.6309H290.358C289.554 43.6309 288.9 42.9876 288.849 42.1796C288.741 40.4867 288.548 39.2641 288.269 38.5119C287.916 37.5198 287.347 37.0238 286.563 37.0238C286.171 37.0238 285.739 37.123 285.269 37.3214C284.907 37.4546 284.531 37.7414 284.141 38.1819C283.988 38.3554 283.89 38.5707 283.842 38.798L280.401 55.0628C280.255 55.7551 279.648 56.25 278.946 56.25H269.239C268.293 56.25 267.588 55.373 267.783 54.4406L272.509 31.8454Z" fill="white"/>
</svg>
